{"title":"House Of Cards 2013 HDRiP XViD UNiQUE","uid":8854795,"size":1510924627,"categoryP":"video","categoryS":"movies","magnet":"?xt=urn:btih:c2f7f798d644b5ca96257362a9df507cde81f288&amp;dn=House+Of+Cards+2013+HDRiP+XViD+UNiQUE&amp;tr=udp%3A%2F%2Ftracker.openbittorrent.com%3A80&amp;tr=udp%3A%2F%2Fopen.demonii.com%3A1337&amp;tr=udp%3A%2F%2Ftracker.coppersurfer.tk%3A6969&amp;tr=udp%3A%2F%2Fexodus.desync.com%3A6969","seeders":9,"leechers":1,"uploader":"xxxlavalxxx","files":-1,"time":1377626014,"description":" &lt;a href=&quot;\nhttp://www.imdb.com/title/tt2422212/&quot; rel=&quot;nofollow&quot; target=&quot;_NEW&quot;&gt;\nhttp://www.imdb.com/title/tt2422212/&lt;/a&gt;\n\n\n\nAn elite firm of assassins must face their own mortality as they are hunted down one by one by a mysterious assailant. Caught up in the drama is a disgraced journalist who is more connected to the assassins' world than he could ever know. \n\n\n\nDirector:\n Ian Chinsee \n\nWriter:\n Ian Chinsee \n\nStars:\n Benjamin Alldridge, Daniel Cason, Ian Chinsee\n\nGenres:\n  Action |  Drama \n\nCountry:\n Australia | USA \n\nLanguage:\n English \n\n\n\nFormat                                   : AVI\n Format/Info                              : Audio Video Interleave\n File size                                : 1.40 GiB\n Duration                                 : 1h 48mn\n Overall bit rate                         : 1 839 Kbps\n Writing application                      : VirtualDubMod 1.5.10.2 (build 2540/release)\n Writing library                          : VirtualDubMod build 2540/release\n\n Video\n ID                                       : 0\n Format                                   : MPEG-4 Visual\n Format profile                           : Advanced Simple@L5\n Format settings, BVOP                    : 2\n Format settings, QPel                    : No\n Format settings, GMC                     : No warppoints\n Format settings, Matrix                  : Default (H.263)\n Muxing mode                              : Packed bitstream\n Codec ID                                 : XVID\n Codec ID/Hint                            : XviD\n Duration                                 : 1h 48mn\n Bit rate                                 : 1 638 Kbps\n Width                                    : 720 pixels\n Height                                   : 400 pixels\n Display aspect ratio                     : 16:9\n Frame rate                               : 23.976 fps\n Color space                              : YUV\n Chroma subsampling                       : 4:2:0\n Bit depth                                : 8 bits\n Scan type                                : Progressive\n Compression mode                         : Lossy\n Bits/(Pixel*Frame)                       : 0.237\n Stream size                              : 1.25 GiB (89%)\n Writing library                          : XviD 64\n\n Audio\n ID                                       : 1\n Format                                   : AC-3\n Format/Info                              : Audio Coding 3\n Mode extension                           : CM (complete main)\n Format settings, Endianness              : Big\n Codec ID                                 : 2000\n Duration                                 : 1h 48mn\n Bit rate mode                            : Constant\n Bit rate                                 : 192 Kbps\n Channel(s)                               : 2 channels\n Channel positions                        : Front: L R\n Sampling rate                            : 48.0 KHz\n Bit depth                                : 16 bits\n Compression mode                         : Lossy\n Stream size                              : 150 MiB (10%)\n Alignment                                : Split accross interleaves\n Interleave, duration                     : 42 ms (1.00 video frame)\n Interleave, preload duration             : 500 ms\n\n\nSource Used      1080p - Thanks\n\n\n &lt;a href=&quot;\nhttp://bayimg.com/JapheaAeB&quot; rel=&quot;nofollow&quot; target=&quot;_NEW&quot;&gt;\nhttp://bayimg.com/JapheaAeB&lt;/a&gt; &lt;a href=&quot;\nhttp://bayimg.com/japhfaAeB&quot; rel=&quot;nofollow&quot; target=&quot;_NEW&quot;&gt;\nhttp://bayimg.com/japhfaAeB&lt;/a&gt;","torrent":{"xt":"urn:btih:c2f7f798d644b5ca96257362a9df507cde81f288","amp;dn":"House+Of+Cards+2013+HDRiP+XViD+UNiQUE","amp;tr":["udp%3A%2F%2Ftracker.openbittorrent.com%3A80","udp%3A%2F%2Fopen.demonii.com%3A1337","udp%3A%2F%2Ftracker.coppersurfer.tk%3A6969","udp%3A%2F%2Fexodus.desync.com%3A6969"],"infoHash":"c2f7f798d644b5ca96257362a9df507cde81f288","infoHashBuffer":{"type":"Buffer","data":[194,247,247,152,214,68,181,202,150,37,115,98,169,223,80,124,222,129,242,136]},"announce":[],"urlList":[]}}